<?xml version="1.0" encoding="UTF-8"?>
<svg width="72px" height="54px" viewBox="0 0 72 54" version="1.1" xmlns="http://www.w3.org/2000/svg" xmlns:xlink="http://www.w3.org/1999/xlink">
    <!-- Generator: Sketch 52.2 (67145) - http://www.bohemiancoding.com/sketch -->
    <title>Asset 90</title>
    <desc>Created with Sketch.</desc>
    <g id="Page-1" stroke="none" stroke-width="1" fill="none" fill-rule="evenodd">
        <g id="Asset-90" transform="translate(1.000000, 1.000000)">
            <rect id="Rectangle" fill="#1DCDFF" x="0.0452220727" y="5.56550725" width="48.1916555" height="15.5387681" rx="2.3746875"></rect>
            <path d="M48.2368775,15.2910145 L48.2368775,20.1735507 C48.2368775,20.6878986 47.2005384,21.1042754 45.9296097,21.1042754 L2.35531629,21.1042754 C1.08061911,21.1042754 0.0480484522,20.6878986 0.0480484522,20.1735507 L0.0480484522,17.3474638 C2.98559892,18.1255797 6.33014805,18.6502899 9.76043069,18.9762319 C13.9057873,19.37 18.1783311,19.4849275 22.4329744,19.5018841 C27.5204576,19.5226087 32.6927322,19.3992029 37.4815612,18.7086957 C41.8699865,18.0784783 45.939031,16.9141304 48.2368775,15.2910145 Z" id="Path" fill="#1AB5E1"></path>
            <path d="M17.4689098,5.60507246 C12.9288022,5.91217391 6.62314939,5.61543478 2.70484522,6.74492754 C0.847913863,7.27905797 0.388156124,8.31717391 0.0895020188,9.17536232 L0.0942126514,6.77318841 C0.0942126514,6.46514493 0.120592194,6.12978261 0.613324361,5.89427536 C1.22288022,5.60413043 2.29407806,5.58152174 3.2371467,5.58246377 C7.86769852,5.5834058 12.9297443,5.37992754 17.4689098,5.60507246 Z" id="Path" fill="#4ED9FF"></path>
            <rect id="Rectangle" stroke="#314E5D" stroke-width="0.75" x="0" y="5.58434783" width="48.1916555" height="15.5387681" rx="2.3746875"></rect>
            <rect id="Rectangle" fill="#1DCDFF" x="15.5969044" y="29.6814493" width="54.4030956" height="15.5387681" rx="2.3746875"></rect>
            <path d="M70,39.4069565 L70,44.2894928 C70,44.8038406 68.8336474,45.2202174 67.3950202,45.2202174 L18.2018843,45.2202174 C16.7632571,45.2202174 15.5969044,44.8038406 15.5969044,44.2894928 L15.5969044,41.4634058 C18.9131898,42.2415217 22.6892328,42.7662319 26.5613728,43.0921739 C31.2362046,43.485942 36.0636608,43.6008696 40.8675639,43.6178261 C46.6088829,43.6385507 52.4500673,43.5151449 57.8559892,42.8246377 C62.8125168,42.1944203 67.4063257,41.0300725 70,39.4069565 Z" id="Path" fill="#1AB5E1"></path>
            <path d="M35.2656797,29.7210145 C30.1405114,30.0281159 23.018035,29.7313768 18.5985195,30.8608696 C16.5004038,31.395942 15.9831763,32.434058 15.6449529,33.2922464 L15.6515478,30.8891304 C15.6515478,30.581087 15.6807537,30.2457246 16.2375505,30.0102174 C16.926245,29.7200725 18.1349933,29.6974638 19.1995962,29.6984058 C24.4265141,29.6993478 30.1423957,29.4958696 35.2656797,29.7210145 Z" id="Path" fill="#4ED9FF"></path>
            <rect id="Rectangle" stroke="#314E5D" stroke-width="0.75" x="15.5450875" y="29.7002899" width="54.4030956" height="15.5387681" rx="2.3746875"></rect>
            <rect id="Rectangle" fill="#FFFFFF" x="7.93741588" y="0.274130435" width="54.43607" height="51.3754348" rx="1.486875"></rect>
            <path d="M62.6090175,2.34471014 L62.6090175,9.91202899 L8.17388964,9.91202899 L8.17388964,2.34471014 C8.17388964,1.08615942 8.84279946,0.064057971 9.66810229,0.064057971 L61.1148048,0.064057971 C61.9401077,0.064057971 62.6090175,1.08615942 62.6090175,2.34471014 Z" id="Path" fill="#DCEAEF"></path>
            <rect id="Rectangle" stroke="#314E5D" stroke-width="0.75" x="7.87240915" y="0.188405797" width="54.43607" height="51.7465942" rx="1.486875"></rect>
            <ellipse id="Oval" fill="#EEA248" cx="13.0013459" cy="5.48449275" rx="1.13055182" ry="1.13043478"></ellipse>
            <ellipse id="Oval" fill="#EEA248" cx="16.6756393" cy="5.48449275" rx="1.13055182" ry="1.13043478"></ellipse>
            <ellipse id="Oval" fill="#EEA248" cx="20.3499327" cy="5.48449275" rx="1.13055182" ry="1.13043478"></ellipse>
            <path d="M17.9786003,20.995942 C17.9786003,19.9182609 18.3479139,19.3134783 19.056393,19.3134783 C19.7648721,19.3134783 20.1341857,19.9182609 20.1341857,20.995942 C20.1341857,22.0736232 19.7648721,22.6831159 19.056393,22.6831159 C18.3479139,22.6831159 17.9786003,22.0783333 17.9786003,20.995942 Z M19.6857335,20.995942 C19.6857335,20.0454348 19.4549125,19.6582609 19.0573351,19.6582609 C18.6597577,19.6582609 18.4289367,20.0454348 18.4289367,20.995942 C18.4289367,21.9464493 18.6654105,22.3383333 19.0573351,22.3383333 C19.4492598,22.3383333 19.6857335,21.9492754 19.6857335,20.995942 Z M19.056393,20.6888406 C19.182267,20.687698 19.2963314,20.7627874 19.3450306,20.8788528 C19.3937299,20.9949182 19.3673912,21.1289064 19.2783812,21.2179072 C19.1893711,21.3069081 19.0553691,21.333244 18.9392917,21.2845498 C18.8232143,21.2358556 18.7481171,21.121803 18.7492598,20.995942 C18.7487544,20.9143398 18.7809507,20.8359334 18.8386593,20.7782308 C18.8963678,20.7205282 18.9747823,20.6883353 19.056393,20.6888406 Z" id="Shape" fill="#426372" fill-rule="nonzero"></path>
            <polygon id="Path" fill="#426372" points="21.8761777 19.8476087 21.0960969 20.3186232 20.8878869 20.0162319 21.9242261 19.3681159 22.3067295 19.3681159 22.3067295 22.2752174 22.9728129 22.2752174 22.9728129 22.6256522 21.0781965 22.6256522 21.0781965 22.2752174 21.8771198 22.2752174 21.8771198 19.8476087"></polygon>
            <polygon id="Path" fill="#426372" points="28.3683715 19.8099275 28.5765814 20.1358696 26.9222073 21.1476087 28.5765814 22.1631159 28.3495289 22.4805797 26.5472409 21.3557971 26.5472409 20.9356522"></polygon>
            <polygon id="Path" fill="#426372" points="30.9855989 22.6265942 30.9855989 21.1014493 29.8032301 21.1014493 29.8032301 22.6275362 29.3547779 22.6275362 29.3547779 19.370942 29.8032301 19.370942 29.8032301 20.7321739 30.9846568 20.7321739 30.9846568 19.370942 31.433109 19.370942 31.433109 22.6275362"></polygon>
            <polygon id="Path" fill="#426372" points="33.4454913 19.7486957 33.4454913 22.6275362 32.997039 22.6275362 32.997039 19.7486957 31.9908479 19.7486957 31.9908479 19.3718841 34.4676985 19.3718841 34.4205922 19.7486957"></polygon>
            <path d="M36.9191117,22.6265942 L36.8248991,20.9582609 C36.8013459,20.4994928 36.8013459,19.9710145 36.8060565,19.8664493 L36.7909825,19.8664493 L36.2718708,22.0434783 L35.841319,22.0434783 L35.3024226,19.8645652 L35.2835801,19.8645652 C35.2835801,19.9728986 35.2930013,20.5362319 35.2741588,20.9563768 L35.1940781,22.6247101 L34.7786003,22.6247101 L34.9670256,19.3681159 L35.5624495,19.3681159 L36.0636608,21.5423188 L36.0825034,21.5423188 L36.5601615,19.3681159 L37.1602961,19.3681159 L37.3487214,22.6247101 L36.9191117,22.6265942 Z" id="Path" fill="#426372"></path>
            <polygon id="Path" fill="#426372" points="38.0986541 22.6265942 38.0986541 19.370942 38.5471063 19.370942 38.5471063 22.2318841 40.026245 22.2318841 39.974428 22.6237681"></polygon>
            <polygon id="Path" fill="#426372" points="42.7489906 20.9347101 42.7489906 21.3548551 40.9476447 22.4796377 40.7205922 22.1621739 42.3749664 21.1466667 40.7205922 20.1349275 40.9288022 19.8089855"></polygon>
            <path d="M17.9786003,26.6650725 C17.9786003,25.5873913 18.3479139,24.9826087 19.056393,24.9826087 C19.7648721,24.9826087 20.1341857,25.5873913 20.1341857,26.6650725 C20.1341857,27.7427536 19.7648721,28.3550725 19.056393,28.3550725 C18.3479139,28.3550725 17.9786003,27.7465217 17.9786003,26.6650725 Z M19.6857335,26.6650725 C19.6857335,25.7145652 19.4549125,25.3273913 19.0573351,25.3273913 C18.6597577,25.3273913 18.4289367,25.7145652 18.4289367,26.6650725 C18.4289367,27.6155797 18.6654105,28.0074638 19.0573351,28.0074638 C19.4492598,28.0074638 19.6857335,27.6193478 19.6857335,26.6650725 Z M19.056393,26.357971 C19.182267,26.3568285 19.2963314,26.4319179 19.3450306,26.5479833 C19.3937299,26.6640487 19.3673912,26.7980368 19.2783812,26.8870376 C19.1893711,26.9760385 19.0553691,27.0023744 18.9392917,26.9536802 C18.8232143,26.904986 18.7481171,26.7909335 18.7492598,26.6650725 C18.748501,26.5833076 18.7805853,26.5046574 18.8383217,26.44675 C18.896058,26.3888425 18.9746177,26.3565207 19.056393,26.357029 L19.056393,26.357971 Z" id="Shape" fill="#426372" fill-rule="nonzero"></path>
            <path d="M21.3759085,27.9311594 L22.8550471,27.9311594 L22.8032301,28.2947826 L20.8652759,28.2947826 L20.8652759,27.95 C21.990175,26.8346377 22.3359354,26.3852899 22.3359354,25.8935507 C22.3452834,25.7446387 22.2898564,25.5989456 22.1838913,25.4938939 C22.0779261,25.3888423 21.9317491,25.3346693 21.7829071,25.3452899 C21.513459,25.3452899 21.3288022,25.4451449 21.1300135,25.6947826 L20.8275908,25.4818841 C21.0829071,25.1653623 21.4041723,24.9807246 21.8064603,24.9807246 C22.4018843,24.9807246 22.7853297,25.3575362 22.7853297,25.8794203 C22.7843876,26.4474638 22.3349933,27.0145652 21.3759085,27.9311594 Z" id="Path" fill="#426372"></path>
            <polygon id="Path" fill="#426372" points="28.3683715 25.4781159 28.5765814 25.804058 26.9222073 26.8157971 28.5765814 27.8313043 28.3495289 28.1487681 26.548183 27.0239855 26.548183 26.6028986"></polygon>
            <path d="M30.3091521,28.2957246 L29.4113055,28.2957246 L29.4113055,25.0391304 L30.2422611,25.0391304 C30.8235532,25.0391304 31.4057873,25.2275362 31.4057873,25.8615217 C31.4129232,26.2003614 31.1737089,26.4945646 30.8405114,26.5567391 L30.8405114,26.5755797 C31.1664872,26.6368116 31.5499327,26.8261594 31.5499327,27.365 C31.5423957,28.0781159 30.9187079,28.2957246 30.3091521,28.2957246 Z M30.3185734,25.3933333 L29.8597577,25.3933333 L29.8597577,26.4135507 L30.3562584,26.4135507 C30.733109,26.4135507 30.9432032,26.2571739 30.9432032,25.8888406 C30.9432032,25.5205072 30.7067295,25.3933333 30.3185734,25.3933333 Z M30.3892328,26.7734058 L29.8597577,26.7734058 L29.8597577,27.9321014 L30.3703903,27.9321014 C30.6878869,27.9321014 31.0703903,27.8378986 31.0703903,27.3744203 C31.0703903,26.910942 30.7632571,26.7734058 30.3892328,26.7734058 Z" id="Shape" fill="#426372" fill-rule="nonzero"></path>
            <path d="M33.2288022,28.3550725 C32.4298789,28.3550725 32.0191117,27.689058 32.0191117,26.6773188 C32.0191117,25.6853623 32.4298789,24.9816667 33.2288022,24.9816667 C34.0277254,24.9816667 34.4384926,25.6580435 34.4384926,26.6688406 C34.4394347,27.6617391 34.0267833,28.3550725 33.2288022,28.3550725 Z M33.2288022,25.3537681 C32.6993271,25.3537681 32.4864065,25.8172464 32.4864065,26.6726087 C32.4864065,27.527971 32.713459,27.982029 33.2288022,27.982029 C33.7582773,27.982029 33.9702557,27.527971 33.9702557,26.6631884 C33.9702557,25.7984058 33.7582773,25.35 33.2288022,25.35 L33.2288022,25.3537681 Z" id="Shape" fill="#426372" fill-rule="nonzero"></path>
            <path d="M35.7838493,28.2957246 L35.022611,28.2957246 L35.022611,25.0391304 L35.7320323,25.0391304 C36.5026918,25.0391304 37.2676985,25.2991304 37.2676985,26.650942 C37.2676985,28.0027536 36.474428,28.2957246 35.7838493,28.2957246 Z M35.8318977,25.3989855 L35.4729475,25.3989855 L35.4729475,27.9424638 L35.8366083,27.9424638 C36.3001346,27.9424638 36.7909825,27.7060145 36.7909825,26.6528261 C36.7909825,25.545 36.2718708,25.3980435 35.8318977,25.3980435 L35.8318977,25.3989855 Z" id="Shape" fill="#426372" fill-rule="nonzero"></path>
            <polygon id="Path" fill="#426372" points="39.1246299 27.0428261 39.1246299 28.2957246 38.6705249 28.2957246 38.6705249 27.0475362 37.5738896 25.0381884 38.0703903 25.0381884 38.9032301 26.6302174 38.9183042 26.6302174 39.7549125 25.0381884 40.2259758 25.0381884"></polygon>
            <polygon id="Path" fill="#426372" points="42.7489906 26.6028986 42.7489906 27.0230435 40.9476447 28.1478261 40.7205922 27.8303623 42.3749664 26.8148551 40.7205922 25.8031159 40.9288022 25.4771739"></polygon>
            <path d="M17.9786003,32.3332609 C17.9786003,31.2555797 18.3479139,30.6507971 19.056393,30.6507971 C19.7648721,30.6507971 20.1341857,31.2555797 20.1341857,32.3332609 C20.1341857,33.410942 19.7648721,34.0204348 19.056393,34.0204348 C18.3479139,34.0204348 17.9786003,33.4156522 17.9786003,32.3332609 Z M19.6857335,32.3332609 C19.6857335,31.3827536 19.4549125,30.9955797 19.0573351,30.9955797 C18.6597577,30.9955797 18.4289367,31.3827536 18.4289367,32.3332609 C18.4289367,33.2837681 18.6654105,33.6756522 19.0573351,33.6756522 C19.4492598,33.6756522 19.6857335,33.2875362 19.6857335,32.3332609 Z M19.056393,32.0289855 C19.182267,32.027843 19.2963314,32.1029324 19.3450306,32.2189978 C19.3937299,32.3350632 19.3673912,32.4690513 19.2783812,32.5580521 C19.1893711,32.647053 19.0553691,32.6733889 18.9392917,32.6246947 C18.8232143,32.5760005 18.7481171,32.461948 18.7492598,32.336087 C18.7487544,32.2544847 18.7809507,32.1760784 18.8386593,32.1183758 C18.8963678,32.0606732 18.9747823,32.0284802 19.056393,32.0289855 Z" id="Shape" fill="#426372" fill-rule="nonzero"></path>
            <path d="M21.7631225,34.0204348 C21.3761742,34.0322331 21.0040161,33.8713725 20.7475101,33.5814493 L21.030148,33.345 C21.2106243,33.5523418 21.4731697,33.6698204 21.7480485,33.6662319 C22.1870794,33.6662319 22.4527591,33.4203623 22.4527591,33.0228261 C22.4527591,32.5687681 22.1701211,32.4180435 21.7932705,32.4180435 L21.5426649,32.4180435 L21.5944818,32.0826812 L21.7631225,32.0826812 C22.0749664,32.0826812 22.3679677,31.9084058 22.3679677,31.5297101 C22.3679677,31.1839855 22.1032301,30.9946377 21.7678331,30.9946377 C21.4851952,30.9946377 21.2967699,31.0944928 21.0829071,31.2923188 L20.8464334,31.0323188 C21.0975697,30.7852108 21.4362218,30.6473937 21.7885599,30.648913 C22.4122476,30.648913 22.8004038,31.0257246 22.8004038,31.4665942 C22.8009826,31.8335266 22.5415071,32.1494458 22.1814266,32.2202174 L22.1814266,32.239058 C22.5984788,32.2589071 22.9214907,32.6113238 22.9049798,33.0284783 C22.9068641,33.5899275 22.4480485,34.0204348 21.7631225,34.0204348 Z" id="Path" fill="#426372"></path>
            <polygon id="Path" fill="#426372" points="28.3683715 31.1463043 28.5765814 31.4722464 26.9222073 32.4839855 28.5765814 33.4994928 28.3485868 33.8188406 26.5472409 32.6884058 26.5472409 32.2682609"></polygon>
            <polygon id="Path" fill="#426372" points="30.9855989 33.963913 30.9855989 32.4378261 29.8032301 32.4378261 29.8032301 33.963913 29.3547779 33.963913 29.3547779 30.7101449 29.8032301 30.7101449 29.8032301 32.0713768 30.9846568 32.0713768 30.9846568 30.7101449 31.433109 30.7101449 31.433109 33.9667391 30.9846568 33.9667391"></polygon>
            <polygon id="Path" fill="#426372" points="32.7860027 31.0652899 32.7860027 32.1288406 33.9862719 32.1288406 33.9862719 32.4877536 32.7860027 32.4877536 32.7860027 33.6078261 34.2566622 33.6078261 34.2566622 33.962029 32.3403769 33.962029 32.3403769 30.7101449 34.2246299 30.7101449 34.1728129 31.069058"></polygon>
            <path d="M36.6779273,33.1462319 L35.4239569,33.1462319 L35.1733513,33.963913 L34.7248991,33.963913 L35.7791386,30.7101449 L36.3444145,30.7101449 L37.4024226,33.963913 L36.9313594,33.963913 L36.6779273,33.1462319 Z M35.5341857,32.7826087 L36.5705249,32.7826087 L36.064603,31.1142754 L36.0457604,31.1142754 L35.5341857,32.7826087 Z" id="Shape" fill="#426372" fill-rule="nonzero"></path>
            <path d="M38.6187079,33.963913 L37.8574697,33.963913 L37.8574697,30.7101449 L38.566891,30.7101449 C39.3375505,30.7101449 40.1025572,30.9701449 40.1025572,32.3219565 C40.1025572,33.6737681 39.3083445,33.963913 38.6187079,33.963913 Z M38.6658143,31.0662319 L38.3068641,31.0662319 L38.3068641,33.6097101 L38.6705249,33.6097101 C39.1340511,33.6097101 39.6248991,33.3732609 39.6248991,32.3200725 C39.6258412,31.2131884 39.110498,31.0652899 38.6658143,31.0652899 L38.6658143,31.0662319 Z" id="Shape" fill="#426372" fill-rule="nonzero"></path>
            <polygon id="Path" fill="#426372" points="41.292463 31.0652899 41.292463 32.1288406 42.4899058 32.1288406 42.4899058 32.4877536 41.292463 32.4877536 41.292463 33.6078261 42.7631225 33.6078261 42.7631225 33.962029 40.8440108 33.962029 40.8440108 30.7101449 42.7282638 30.7101449 42.6764468 31.069058"></polygon>
            <path d="M44.9215343,32.5273188 L45.8759085,33.963913 L45.3417227,33.963913 L44.4683715,32.5838406 L44.0528937,32.5838406 L44.0528937,33.963913 L43.6044415,33.963913 L43.6044415,30.7101449 L44.4598923,30.7101449 C45.2729475,30.7101449 45.6978466,31.0210145 45.6978466,31.6314493 C45.7006729,32.1156522 45.3605653,32.4133333 44.9215343,32.5273188 Z M44.5051144,31.0568116 L44.0566622,31.0568116 L44.0566622,32.2381159 L44.5107672,32.2381159 C44.9648721,32.2381159 45.2239569,32.0685507 45.2239569,31.6286232 C45.2220727,31.2216667 44.9912517,31.0568116 44.5041723,31.0568116 L44.5051144,31.0568116 Z" id="Shape" fill="#426372" fill-rule="nonzero"></path>
            <polygon id="Path" fill="#426372" points="48.4177658 32.272029 48.4177658 32.6884058 46.6164199 33.8188406 46.3893674 33.5013768 48.0437416 32.4858696 46.3893674 31.4741304 46.5975774 31.1481884"></polygon>
            <path d="M17.9786003,38.0014493 C17.9786003,36.9237681 18.3479139,36.3189855 19.056393,36.3189855 C19.7648721,36.3189855 20.1332436,36.9275362 20.1332436,38.0014493 C20.1332436,39.0753623 19.76393,39.6886232 19.0554509,39.6886232 C18.3469717,39.6886232 17.9786003,39.0838406 17.9786003,38.0014493 Z M19.6857335,38.0014493 C19.6857335,37.050942 19.4549125,36.6637681 19.0573351,36.6637681 C18.6597577,36.6637681 18.4289367,37.050942 18.4289367,38.0014493 C18.4289367,38.9519565 18.6654105,39.3438406 19.0573351,39.3438406 C19.4492598,39.3438406 19.6857335,38.9557246 19.6857335,38.0014493 Z M19.056393,37.6943478 C19.1821848,37.6935884 19.2959607,37.7689229 19.3443618,37.8850207 C19.3927628,38.0011185 19.366189,38.1349526 19.2771031,38.2237569 C19.1880171,38.3125613 19.0540884,38.3387223 18.9381274,38.2899709 C18.8221664,38.2412195 18.7471729,38.1272251 18.7483176,38.0014493 C18.7478093,37.9196825 18.7801344,37.8411309 18.8380479,37.7834005 C18.8959613,37.7256702 18.9746197,37.6935891 19.056393,37.6943478 Z" id="Shape" fill="#426372" fill-rule="nonzero"></path>
            <polygon id="Path" fill="#426372" points="22.5526245 38.8521014 22.5526245 39.6321014 22.1324361 39.6321014 22.1324361 38.8521014 20.7993271 38.8521014 20.7993271 38.545 21.7537012 36.3180435 22.117362 36.4697101 21.2562584 38.5073188 22.1305518 38.5073188 22.1738896 37.6594928 22.5507402 37.6594928 22.5507402 38.5073188 22.9615074 38.5073188 22.9615074 38.8530435"></polygon>
            <polygon id="Path" fill="#426372" points="28.3683715 36.8144928 28.5765814 37.1404348 26.9222073 38.1521739 28.5765814 39.1676812 28.3495289 39.4851449 26.548183 38.3603623 26.548183 37.9402174"></polygon>
            <polygon id="Path" fill="#426372" points="29.5629879 40.1238406 29.2125168 39.9674638 31.2305518 35.8036957 31.5763122 35.9694928"></polygon>
            <polygon id="Path" fill="#426372" points="33.8223419 39.6321014 33.8223419 38.1060145 32.6371467 38.1060145 32.6371467 39.6321014 32.1886945 39.6321014 32.1886945 36.3755072 32.6371467 36.3755072 32.6371467 37.7367391 33.8223419 37.7367391 33.8223419 36.3755072 34.2707941 36.3755072 34.2707941 39.6321014"></polygon>
            <polygon id="Path" fill="#426372" points="35.6236878 36.7391304 35.6236878 37.8026812 36.8239569 37.8026812 36.8239569 38.1615942 35.6236878 38.1615942 35.6236878 39.2816667 37.0943472 39.2816667 37.0943472 39.6358696 35.1752355 39.6358696 35.1752355 36.3755072 37.0594886 36.3755072 37.0076716 36.7344203"></polygon>
            <path d="M39.5118439,38.8115942 L38.2588156,38.8115942 L38.00821,39.6292754 L37.5597577,39.6292754 L38.6139973,36.3726812 L39.1792732,36.3726812 L40.2335128,39.6292754 L39.7624495,39.6292754 L39.5118439,38.8115942 Z M38.3681023,38.447971 L39.4044415,38.447971 L38.8985195,36.7796377 L38.8787349,36.7796377 L38.3681023,38.447971 Z" id="Shape" fill="#426372" fill-rule="nonzero"></path>
            <path d="M41.4535666,39.6321014 L40.6923284,39.6321014 L40.6923284,36.3755072 L41.4017497,36.3755072 C42.1724092,36.3755072 42.9374159,36.6355072 42.9374159,37.9873188 C42.9374159,39.3391304 42.1441454,39.6321014 41.4535666,39.6321014 Z M41.5006729,36.7391304 L41.1417227,36.7391304 L41.1417227,39.2826087 L41.5053836,39.2826087 C41.9689098,39.2826087 42.4597577,39.0461594 42.4597577,37.992971 C42.4597577,36.8813768 41.9444145,36.7391304 41.5006729,36.7391304 Z" id="Shape" fill="#426372" fill-rule="nonzero"></path>
            <polygon id="Path" fill="#426372" points="44.1263795 36.7391304 44.1263795 37.8026812 45.3266487 37.8026812 45.3266487 38.1615942 44.1263795 38.1615942 44.1263795 39.2816667 45.5989233 39.2816667 45.5989233 39.6358696 43.6779273 39.6358696 43.6779273 36.3755072 45.5621803 36.3755072 45.5047106 36.7391304"></polygon>
            <path d="M47.7554509,38.1945652 L48.7079408,39.6321014 L48.173755,39.6321014 L47.3041723,38.252029 L46.8877524,38.252029 L46.8877524,39.6321014 L46.4393001,39.6321014 L46.4393001,36.3755072 L47.294751,36.3755072 C48.1078062,36.3755072 48.5327052,36.6863768 48.5327052,37.2968116 C48.5355316,37.7838406 48.195424,38.0815217 47.7554509,38.1945652 Z M47.3399731,36.725 L46.8915209,36.725 L46.8915209,37.9072464 L47.3456258,37.9072464 C47.7997308,37.9072464 48.0588156,37.7376812 48.0588156,37.2977536 C48.0578735,36.8907971 47.8261104,36.725 47.339031,36.725 L47.3399731,36.725 Z" id="Shape" fill="#426372" fill-rule="nonzero"></path>
            <polygon id="Path" fill="#426372" points="51.2516824 37.9402174 51.2516824 38.3603623 49.4503365 39.4851449 49.223284 39.1676812 50.8748318 38.1521739 49.2204576 37.1404348 49.4286676 36.8144928"></polygon>
        </g>
    </g>
</svg>